<svg width="32" height="25" viewBox="0 0 32 25" fill="none" xmlns="http://www.w3.org/2000/svg">
<path d="M27.0894 2.22628C25.0498 1.28246 22.8626 0.587099 20.5759 0.188835C20.5342 0.181149 20.4926 0.200357 20.4712 0.238775C20.1899 0.743326 19.8783 1.40155 19.6601 1.91892C17.2005 1.54755 14.7536 1.54755 12.3444 1.91892C12.1262 1.39005 11.8033 0.743326 11.5208 0.238775C11.4993 0.201639 11.4577 0.18243 11.4161 0.188835C9.13055 0.585826 6.94341 1.28119 4.90258 2.22628C4.88491 2.23396 4.86977 2.24678 4.85972 2.26342C0.711189 8.51405 -0.425267 14.6111 0.13224 20.6325C0.134763 20.6619 0.15116 20.6901 0.173864 20.708C2.91095 22.7352 5.56228 23.9659 8.16437 24.7816C8.20602 24.7944 8.25014 24.7791 8.27664 24.7445C8.89217 23.8967 9.44086 23.0029 9.9113 22.0629C9.93906 22.0078 9.91256 21.9425 9.85582 21.9207C8.98551 21.5878 8.1568 21.1818 7.35964 20.7208C7.29659 20.6837 7.29154 20.5927 7.34954 20.5492C7.5173 20.4224 7.68509 20.2905 7.84527 20.1573C7.87425 20.133 7.91464 20.1279 7.94871 20.1432C13.1857 22.5546 18.8554 22.5546 24.0306 20.1432C24.0647 20.1266 24.1051 20.1317 24.1353 20.1561C24.2955 20.2892 24.4633 20.4224 24.6323 20.5492C24.6903 20.5927 24.6865 20.6837 24.6235 20.7208C23.8263 21.1908 22.9976 21.5878 22.126 21.9195C22.0693 21.9412 22.044 22.0078 22.0718 22.0629C22.5523 23.0016 23.101 23.8954 23.7052 24.7432C23.7304 24.7791 23.7758 24.7944 23.8175 24.7816C26.4322 23.9659 29.0835 22.7352 31.8206 20.708C31.8446 20.6901 31.8597 20.6632 31.8622 20.6337C32.5294 13.6723 30.7447 7.62533 27.131 2.26469C27.1221 2.24678 27.107 2.23396 27.0894 2.22628ZM10.6934 16.9661C9.11666 16.9661 7.81751 15.5062 7.81751 13.7133C7.81751 11.9205 9.09147 10.4606 10.6934 10.4606C12.3078 10.4606 13.5944 11.9333 13.5692 13.7133C13.5692 15.5062 12.2952 16.9661 10.6934 16.9661ZM21.3263 16.9661C19.7497 16.9661 18.4505 15.5062 18.4505 13.7133C18.4505 11.9205 19.7244 10.4606 21.3263 10.4606C22.9408 10.4606 24.2274 11.9333 24.2022 13.7133C24.2022 15.5062 22.9408 16.9661 21.3263 16.9661Z" fill="white"/>
</svg>
